<svg width="28" height="28" fill="none" xmlns="http://www.w3.org/2000/svg"><circle cx="14" cy="14" r="14" fill="#009DD9"/><path d="M6.545 14.262l3.219 1.2 1.255 4.037c.054.273.382.328.6.164l1.8-1.473c.164-.164.437-.164.655 0l3.218 2.346c.219.164.546.054.6-.218l2.4-11.457c.055-.272-.217-.545-.49-.436L6.545 13.553c-.327.11-.327.6 0 .71zm4.31.6l6.328-3.873c.11-.055.218.11.11.164l-5.183 4.855c-.164.164-.327.382-.327.655l-.164 1.309c0 .163-.273.218-.328 0l-.654-2.4c-.164-.273-.055-.6.218-.71z" fill="#FEFEFE"/></svg>