<svg width="28" height="28" fill="none" xmlns="http://www.w3.org/2000/svg"><circle cx="14" cy="14" r="14" fill="#1ABF5D"/><path d="M19.549 8.444A7.3 7.3 0 0014.376 6.3c-4.047 0-7.325 3.266-7.325 7.299a7.38 7.38 0 00.973 3.624L7 21l3.893-1.021a7.49 7.49 0 003.483.868c4.046 0 7.324-3.267 7.324-7.3-.051-1.888-.768-3.725-2.151-5.103zm-1.64 7.758c-.153.408-.87.817-1.229.868a2.874 2.874 0 01-1.126-.051c-.256-.102-.615-.205-1.025-.409-1.844-.765-3.022-2.603-3.124-2.756-.103-.102-.768-.97-.768-1.889 0-.918.46-1.327.614-1.53.154-.205.359-.205.512-.205h.359c.102 0 .256-.051.41.306.153.358.512 1.276.563 1.327a.325.325 0 010 .307 1.064 1.064 0 01-.205.306c-.102.102-.205.255-.256.306-.102.102-.205.204-.102.357.102.205.46.766 1.024 1.276.717.613 1.28.817 1.486.92.204.101.307.05.41-.052.102-.102.46-.51.563-.714.102-.205.256-.154.41-.103.153.052 1.075.51 1.229.613.204.102.307.153.358.204.051.153.051.51-.102.919z" fill="#FEFEFE"/></svg>