<svg width="42" height="43" fill="none" xmlns="http://www.w3.org/2000/svg"><g clip-path="url(#clip0_313:538)"><circle cx="21" cy="21.139" r="21" fill="#FEFEFE"/><path d="M27.91 12.74H15.14c-1.442 0-2.54 1.098-2.54 2.54v12.77c0 1.441 1.098 2.54 2.54 2.54h12.77c1.442 0 2.54-1.099 2.54-2.54V15.28c0-1.442-1.098-2.54-2.54-2.54zm-6.385 14.28c2.952 0 5.355-2.335 5.355-5.15 0-.48-.069-1.03-.206-1.441h1.51v7.277a.688.688 0 01-.686.687H15.552a.688.688 0 01-.686-.687V20.36h1.579c-.138.48-.206.961-.206 1.442-.07 2.883 2.334 5.218 5.286 5.218zm0-2.06c-1.922 0-3.433-1.51-3.433-3.364 0-1.854 1.51-3.364 3.433-3.364 1.922 0 3.433 1.51 3.433 3.364 0 1.922-1.51 3.364-3.433 3.364zm6.59-7.346a.762.762 0 01-.755.755h-1.922a.762.762 0 01-.755-.755V15.76c0-.412.343-.755.755-.755h1.922c.412 0 .756.343.756.755v1.854z" fill="#36393F"/></g><defs><clipPath id="clip0_313:538"><path fill="#fff" transform="translate(0 .14)" d="M0 0h42v42H0z"/></clipPath></defs></svg>