<svg width="120" height="43" fill="none" xmlns="http://www.w3.org/2000/svg"><path fill-rule="evenodd" clip-rule="evenodd" d="M23.828 13.645l-3.581 6.327h9.98l-4.346 7.413h-9.836l-3.582 6.327h7.497l5.348 8.688c5.587-9.68 10.792-18.745 16.57-28.755h-18.05zM49.614 0H0l3.772 6.138C7.115 11.615 8.643 18.367 8.404 26.3l7.45-13.173-3.773-6.421h33.904L49.614 0z" fill="#FEFEFE"/><path d="M65.802 29.935H59.26c-.239 0-.382.142-.382.378v9.585c0 .236.095.377.382.377h1.48c.239 0 .382-.094.382-.377V36.45h3.056c.239 0 .382-.095.382-.378v-1.228c0-.236-.095-.377-.382-.377h-3.056v-2.503h4.68c.239 0 .382-.141.382-.378v-1.274c-.048-.236-.143-.378-.382-.378zm8.213 9.963l-3.104-9.585a.967.967 0 00-.19-.284c-.096-.047-.192-.094-.335-.094h-1.767c-.143 0-.286.047-.334.094a.602.602 0 00-.191.284l-3.152 9.585a.298.298 0 000 .283c.048.094.096.094.191.094h1.624c.286 0 .43-.094.525-.377l.525-1.795h3.295l.525 1.795a1 1 0 00.192.283c.095.094.19.094.334.094h1.623c.096 0 .144-.047.191-.094.096-.095.096-.189.048-.283zm-5.587-3.778l.955-3.258h.144l.954 3.258h-2.053zm12.845-2.691h1.48c.24 0 .383-.095.383-.378v-.944c0-1.511-.764-2.267-2.292-2.267h-3.486c-1.528 0-2.292.756-2.292 2.267v6.044c0 1.51.764 2.266 2.292 2.266h3.486c1.528 0 2.292-.756 2.292-2.266v-.945c0-.236-.144-.378-.382-.378h-1.48c-.24 0-.383.095-.383.378v.52c0 .236-.047.425-.19.519-.144.142-.335.189-.526.189h-2.149c-.239 0-.382-.095-.525-.189-.143-.142-.191-.33-.191-.52v-5.193a.75.75 0 01.191-.52c.143-.141.334-.188.525-.188h2.15c.238 0 .429.047.524.189.144.141.191.33.191.519v.52c0 .235.144.377.382.377zm10.124-3.494h-7.02c-.239 0-.382.142-.382.378v1.274c0 .237.096.378.382.378h2.388v7.933c0 .236.095.377.382.377h1.48c.239 0 .382-.094.382-.377v-7.933h2.388c.238 0 .382-.141.382-.378v-1.274c-.048-.236-.144-.378-.382-.378zm7.115-.142h-3.63c-1.527 0-2.291.756-2.291 2.267v6.043c0 1.511.764 2.267 2.292 2.267h3.629c1.528 0 2.292-.756 2.292-2.267v-5.996c0-1.558-.764-2.314-2.292-2.314zm.095 7.885a.75.75 0 01-.19.52c-.144.141-.335.189-.526.189h-2.292a.769.769 0 01-.525-.19c-.144-.14-.191-.33-.191-.519v-5.146c0-.236.047-.425.19-.52.144-.141.335-.188.526-.188h2.292c.239 0 .43.047.525.189.144.141.191.33.191.519v5.146zm12.177 2.22l-1.48-3.022c.286-.047.525-.142.716-.33.191-.142.334-.331.477-.615.144-.283.239-.66.239-1.18v-2.502c0-1.511-.764-2.267-2.292-2.267h-5.109c-.239 0-.382.142-.382.378v9.585c0 .236.095.377.382.377h1.48c.239 0 .382-.094.382-.377v-2.88h1.958l1.337 2.88c.048.094.095.189.191.283.095.094.191.094.334.094h1.624c.095 0 .143-.047.191-.094 0-.142 0-.236-.048-.33zm-2.292-5.62c0 .237-.048.426-.191.52-.143.142-.334.19-.525.19h-2.627V31.87h2.627c.238 0 .429.047.525.189.143.141.191.33.191.52v1.699zm11.412-4.249a.364.364 0 00-.238-.094h-1.624c-.191 0-.334.047-.382.094-.095.095-.143.142-.191.284l-1.767 3.824h-.143l-1.767-3.824a.962.962 0 00-.191-.284.745.745 0 00-.382-.094h-1.623a.367.367 0 00-.239.094c-.048.095-.048.142 0 .284l3.199 6.421v3.164c0 .236.096.377.382.377h1.481c.238 0 .382-.094.382-.377v-3.164L120 30.313c-.048-.095-.048-.19-.096-.284zM65.802 16.053H59.26c-.239 0-.382.095-.382.378v9.585c0 .236.095.378.382.378h1.48c.239 0 .382-.142.382-.378v-3.447h3.056c.239 0 .382-.141.382-.377v-1.275c0-.236-.095-.378-.382-.378h-3.056v-2.503h4.68c.239 0 .382-.141.382-.377V16.43c-.048-.236-.143-.378-.382-.378zm7.21-.141h-3.629c-1.528 0-2.292.755-2.292 2.266v6.044c0 1.51.764 2.266 2.292 2.266h3.63c1.527 0 2.291-.755 2.291-2.266v-5.997c0-1.558-.764-2.313-2.292-2.313zm.048 7.885c0 .236-.048.425-.19.52-.144.14-.335.188-.526.188h-2.292c-.239 0-.382-.047-.526-.189-.143-.141-.19-.33-.19-.52V18.65a.75.75 0 01.19-.519c.144-.142.335-.189.526-.189h2.292c.239 0 .43.095.525.189.143.142.191.33.191.52v5.146zm10.171-7.885h-3.629c-1.528 0-2.292.755-2.292 2.266v6.044c0 1.51.764 2.266 2.292 2.266h3.63c1.527 0 2.291-.755 2.291-2.266v-5.997c0-1.558-.764-2.313-2.292-2.313zm.048 7.885a.75.75 0 01-.191.52c-.143.14-.334.188-.525.188H80.27c-.24 0-.43-.047-.526-.189-.143-.141-.19-.33-.19-.52V18.65c0-.236.047-.425.19-.519.144-.142.335-.189.526-.189h2.292c.238 0 .382.095.525.189.143.142.19.33.19.52v5.146zm10.123-7.744H87.96c-.24 0-.382.095-.382.378v9.585c0 .236.095.378.382.378h5.443c1.528 0 2.292-.756 2.292-2.267v-5.76c0-1.558-.764-2.314-2.292-2.314zm.048 7.602c0 .236-.048.425-.19.52-.144.141-.335.188-.526.188H89.82v-6.326h2.913c.239 0 .43.047.525.188.143.142.191.33.191.52v4.91zm13.084-15.156a1.461 1.461 0 00-.286-.614c-.144-.142-.287-.33-.526-.425-.191-.142-.43-.236-.716-.33l-3.295-1.228c-.191-.094-.334-.142-.382-.236-.095-.095-.095-.236-.095-.425v-.425c0-.236.095-.378.191-.52.143-.141.334-.188.525-.188h1.576a.77.77 0 01.525.189c.143.141.191.33.191.519v.52c0 .235.095.377.382.377h1.48c.239 0 .382-.142.382-.378v-.944c0-1.51-.764-2.266-2.292-2.266h-2.913c-1.528 0-2.292.755-2.292 2.266V5.43c0 .33.048.566.096.803.095.236.143.424.286.613.144.142.335.33.526.425.191.142.429.236.716.33l3.295 1.228c.191.095.334.142.382.236.095.095.095.237.095.425v.425c0 .236-.048.378-.191.52-.143.141-.334.189-.525.189h-1.862c-.239 0-.382-.095-.526-.19-.143-.14-.191-.33-.191-.519v-.519c0-.236-.095-.378-.382-.378h-1.48c-.239 0-.382.142-.382.378v.944c0 1.511.764 2.267 2.292 2.267h3.199c1.529 0 2.293-.756 2.293-2.267V9.302c0-.284 0-.567-.096-.803zm-9.12 1.983h-4.776V8.216h3.486c.239 0 .382-.095.382-.378V6.61c0-.236-.095-.377-.382-.377h-3.486V4.155h4.632c.239 0 .382-.094.382-.378V2.55c0-.236-.095-.378-.382-.378h-6.446c-.239 0-.382.094-.382.378v9.537c0 .236.095.378.382.378h6.59c.238 0 .382-.094.382-.378V10.86c0-.236-.144-.378-.383-.378zm-9.599-8.31h-1.48c-.239 0-.382.094-.382.378v6.043h-.143L82.754 2.55c-.048-.095-.144-.19-.191-.284-.096-.094-.191-.094-.335-.094h-1.862c-.239 0-.382.094-.382.378v9.537c0 .236.096.378.382.378h1.48c.24 0 .382-.094.382-.378V6.091h.144l3.056 6.043c.047.095.143.19.19.284.096.094.192.094.335.094h1.862c.24 0 .382-.094.382-.378V2.55c0-.236-.143-.378-.382-.378zm-9.454 0h-7.02c-.239 0-.382.094-.382.378v1.227c0 .236.096.378.382.378h2.388v7.932c0 .236.143.378.382.378h1.48c.239 0 .382-.094.382-.378V4.155h2.388c.238 0 .382-.094.382-.378V2.55c0-.236-.144-.378-.382-.378zm-8.978 0h-1.48c-.239 0-.382.094-.382.378v9.537c0 .236.095.378.382.378h1.48c.239 0 .382-.094.382-.378V2.55c-.047-.236-.143-.378-.382-.378zm-3.581 0H59.26c-.239 0-.382.094-.382.378v9.537c0 .236.095.378.382.378h1.48c.239 0 .382-.094.382-.378V8.641h3.056c.239 0 .382-.095.382-.378V7.035c0-.236-.095-.378-.382-.378h-3.056V4.155h4.68c.239 0 .382-.094.382-.378V2.55c-.048-.236-.143-.378-.382-.378zm49.9 6.327a2.526 2.526 0 00-.334-.614c-.143-.142-.286-.33-.525-.425-.191-.142-.478-.236-.716-.33l-3.295-1.228c-.191-.094-.335-.142-.382-.236-.096-.095-.096-.236-.096-.425v-.425c0-.236.048-.378.191-.52.143-.141.334-.188.525-.188h1.576c.239 0 .43.094.526.189.143.141.191.33.191.519v.52c0 .235.143.377.382.377h1.48c.239 0 .382-.142.382-.378v-.944c0-1.51-.764-2.266-2.292-2.266h-2.913c-1.528 0-2.292.755-2.292 2.266V5.43c0 .33.048.566.095.803.048.236.144.424.287.613.143.142.286.33.525.425.191.142.478.236.716.33l3.295 1.228c.191.095.335.142.382.236.096.095.096.237.096.425v.425c0 .236-.048.378-.191.52-.143.141-.335.189-.526.189h-1.862a.766.766 0 01-.525-.19c-.143-.14-.191-.33-.191-.519v-.519c0-.236-.143-.378-.382-.378h-1.48c-.239 0-.382.142-.382.378v.944c0 1.511.764 2.267 2.292 2.267h3.199c1.528 0 2.292-.756 2.292-2.267V9.302c.048-.284 0-.567-.048-.803z" fill="#FEFEFE"/></svg>