<svg width="42" height="43" fill="none" xmlns="http://www.w3.org/2000/svg"><g clip-path="url(#clip0_313:541)"><circle cx="21" cy="21.139" r="21" fill="#FEFEFE"/><path d="M31.796 26.7c0-.095-.088-.095-.088-.191-.35-.767-1.138-1.726-2.188-2.78-.525-.48-.788-.864-.963-1.056-.262-.383-.262-.67-.175-1.054.087-.288.438-.767 1.05-1.63.35-.48.526-.768.788-1.055 1.313-1.918 1.926-3.165 1.75-3.74l-.087-.096c-.087-.096-.175-.192-.35-.192-.175-.096-.438-.096-.7 0h-3.939l-.088.096c-.087.096-.087.096-.087.192-.35 1.055-.788 1.918-1.226 2.877-.262.48-.525.959-.787 1.342-.263.384-.438.671-.613.863-.175.192-.35.288-.438.48-.087.096-.262.191-.262.096-.088 0-.175 0-.175-.096l-.263-.288c-.088-.096-.088-.288-.175-.48v-4.794c0-.096-.088-.288-.088-.384l-.262-.287c-.088-.096-.263-.096-.35-.192a7.196 7.196 0 00-1.576-.192c-1.4 0-2.363.096-2.713.288-.175.096-.35.192-.438.383-.175.192-.175.288-.088.288.438.096.788.288.963.575l.088.192c.087.096.087.288.175.575.087.288.087.576.087.96v1.534c0 .48-.087.767-.087 1.054 0 .288-.088.48-.175.576-.088.192-.088.288-.175.288 0 0 0 .095-.088.095-.087 0-.175.096-.35.096-.087 0-.263-.096-.35-.191a1.11 1.11 0 01-.438-.48c-.175-.192-.35-.48-.525-.863-.175-.384-.438-.767-.613-1.342l-.175-.384c-.087-.192-.262-.575-.437-1.055s-.35-.863-.526-1.342c-.087-.192-.175-.288-.262-.384h-.088s-.087-.096-.175-.096c-.087 0-.175-.096-.262-.096H10.7c-.35 0-.525.096-.612.192l-.088.096v.192c0 .096 0 .192.088.383.437 1.151.963 2.302 1.488 3.452.525 1.055 1.05 2.014 1.4 2.685.438.672.788 1.343 1.226 1.918.437.576.7.96.787 1.15l.35.384.263.288c.175.192.438.48.788.767.35.288.788.576 1.226.863.437.288.962.48 1.488.672.612.191 1.137.287 1.663.191h1.313c.262 0 .437-.096.612-.287l.088-.096c0-.096.087-.096.087-.192v-.384c0-.383 0-.67.088-.959.088-.287.088-.479.175-.67a1.32 1.32 0 01.263-.384l.175-.192h.087c.175-.096.438 0 .613.192.263.191.525.48.7.767.175.287.438.575.788.959.35.383.613.67.788.767l.262.192c.175.096.35.191.613.287.263.096.438.096.613.096l2.976-.096c.263 0 .525-.096.7-.191.175-.096.263-.192.263-.384v-.384c-.175-.191-.175-.287-.175-.383z" fill="#36393F"/></g><defs><clipPath id="clip0_313:541"><path fill="#fff" transform="translate(0 .14)" d="M0 0h42v42H0z"/></clipPath></defs></svg>