<svg width="42" height="42" fill="none" xmlns="http://www.w3.org/2000/svg"><circle cx="21" cy="21" r="21" fill="#FEFEFE"/><path d="M30.149 19.858c0-.407-.068-.882-.068-1.425a94.1 94.1 0 00-.204-1.561c-.135-.543-.339-.95-.746-1.29-.34-.34-.815-.543-1.29-.61-1.561-.204-3.869-.272-6.991-.272-3.123 0-5.499.068-6.992.271-.475.068-.95.272-1.29.611-.339.34-.61.747-.746 1.29a5.44 5.44 0 00-.204 1.561c-.068.543-.068 1.018-.068 1.425v3.122c0 .408.068.883.068 1.426.068.543.136 1.086.204 1.562.135.543.34.95.746 1.29.34.339.815.542 1.29.61 1.561.204 3.87.272 6.992.272s5.498-.068 6.991-.272c.475-.068.95-.271 1.29-.61.34-.34.61-.747.746-1.29a5.44 5.44 0 00.204-1.562c.068-.543.068-1.018.068-1.425v-3.123zm-5.702 2.105l-5.362 3.326a.518.518 0 01-.34.136c-.135 0-.203 0-.34-.068a.713.713 0 01-.338-.611v-6.72c0-.272.135-.475.339-.611a.616.616 0 01.679 0l5.362 3.326c.204.136.34.34.34.543 0 .204-.136.543-.34.679z" fill="#36393F"/></svg>